name ./resultDataOpenSim/trcMotMarkerGrf/sub10/grf-14-02.mot
datacolumns 19
datarows 10
range 1.46800000 1.50400000
endheader

                time	     ground_force_vx	     ground_force_vy	     ground_force_vz	     ground_force_px	     ground_force_py	     ground_force_pz	   l_ground_force_vx	   l_ground_force_vy	   l_ground_force_vz	   l_ground_force_px	   l_ground_force_py	   l_ground_force_pz	     ground_torque_x	     ground_torque_y	     ground_torque_z	   l_ground_torque_x	   l_ground_torque_y	   l_ground_torque_z	
          1.46800000	        -14.77507458	        427.28647584	        -19.29994093	          0.92278391	          0.00000000	          0.01179035	          0.00000000	          0.00000000	          0.00000000	          0.00000000	          0.00000000	          0.00000000	          0.00000000	          3.74192705	          0.00000000	          0.00000000	          0.00000000	          0.00000000	
          1.47200000	        -12.69397403	        426.18208075	        -18.40788911	          0.92283025	          0.00000000	          0.01138724	          0.00000000	          0.00000000	          0.00000000	          0.00000000	          0.00000000	          0.00000000	          0.00000000	          3.83769825	          0.00000000	          0.00000000	          0.00000000	          0.00000000	
          1.47600000	        -10.46089423	        425.33127377	        -18.15490895	          0.92278998	          0.00000000	          0.01102026	          0.00000000	          0.00000000	          0.00000000	          0.00000000	          0.00000000	          0.00000000	          0.00000000	          3.94621646	          0.00000000	          0.00000000	          0.00000000	          0.00000000	
          1.48000000	         -8.18170338	        424.78314094	        -18.45695538	          0.92270219	          0.00000000	          0.01068439	          0.00000000	          0.00000000	          0.00000000	          0.00000000	          0.00000000	          0.00000000	          0.00000000	          4.06622456	          0.00000000	          0.00000000	          0.00000000	          0.00000000	
          1.48400000	         -5.93214664	        424.61817622	        -19.13274926	          0.92259509	          0.00000000	          0.01036521	          0.00000000	          0.00000000	          0.00000000	          0.00000000	          0.00000000	          0.00000000	          0.00000000	          4.19649730	          0.00000000	          0.00000000	          0.00000000	          0.00000000	
          1.48800000	         -3.73433874	        424.93572022	        -19.94083395	          0.92246811	          0.00000000	          0.01005196	          0.00000000	          0.00000000	          0.00000000	          0.00000000	          0.00000000	          0.00000000	          0.00000000	          4.33588030	          0.00000000	          0.00000000	          0.00000000	          0.00000000	
          1.49200000	         -1.55706470	        425.84134947	        -20.62904452	          0.92232335	          0.00000000	          0.00974285	          0.00000000	          0.00000000	          0.00000000	          0.00000000	          0.00000000	          0.00000000	          0.00000000	          4.48318509	          0.00000000	          0.00000000	          0.00000000	          0.00000000	
          1.49600000	          0.66515459	        427.44601637	        -20.98810461	          0.92215440	          0.00000000	          0.00943452	          0.00000000	          0.00000000	          0.00000000	          0.00000000	          0.00000000	          0.00000000	          0.00000000	          4.63713907	          0.00000000	          0.00000000	          0.00000000	          0.00000000	
          1.50000000	          3.00631627	        429.86956781	        -20.89616512	          0.92194426	          0.00000000	          0.00912186	          0.00000000	          0.00000000	          0.00000000	          0.00000000	          0.00000000	          0.00000000	          0.00000000	          4.79647294	          0.00000000	          0.00000000	          0.00000000	          0.00000000	
          1.50400000	          5.52463008	        433.22137146	        -20.34077661	          0.92169394	          0.00000000	          0.00881259	          0.00000000	          0.00000000	          0.00000000	          0.00000000	          0.00000000	          0.00000000	          0.00000000	          4.96006177	          0.00000000	          0.00000000	          0.00000000	          0.00000000	
